<svg width="31" height="30" viewBox="0 0 31 30" fill="none" xmlns="http://www.w3.org/2000/svg">
<mask id="mask0_648_1282" style="mask-type:alpha" maskUnits="userSpaceOnUse" x="0" y="0" width="31" height="30">
<rect x="0.849854" width="30" height="30" fill="#D9D9D9"/>
</mask>
<g mask="url(#mask0_648_1282)">
<path d="M7.09985 26.25C6.41235 26.25 5.8236 26.0054 5.3336 25.5163C4.84444 25.0263 4.59985 24.4375 4.59985 23.75V6.25C4.59985 5.5625 4.84444 4.97375 5.3336 4.48375C5.8236 3.99458 6.41235 3.75 7.09985 3.75H15.8499V6.25H7.09985V23.75H15.8499V26.25H7.09985ZM20.8499 21.25L19.1311 19.4375L22.3186 16.25H12.0999V13.75H22.3186L19.1311 10.5625L20.8499 8.75L27.0999 15L20.8499 21.25Z" fill="#834646"/>
</g>
</svg>
