<svg width="24" height="24" viewBox="0 0 24 24" fill="none" xmlns="http://www.w3.org/2000/svg">
<mask id="mask0_646_695" style="mask-type:alpha" maskUnits="userSpaceOnUse" x="0" y="0" width="24" height="24">
<rect width="24" height="24" fill="#D9D9D9"/>
</mask>
<g mask="url(#mask0_646_695)">
<path d="M17.975 16.5C17.825 16.35 17.746 16.154 17.738 15.912C17.7293 15.6707 17.7916 15.4583 17.925 15.275C18.275 14.8083 18.5416 14.2957 18.725 13.737C18.9083 13.179 19 12.6 19 12C19 11.4 18.9083 10.8207 18.725 10.262C18.5416 9.704 18.275 9.19167 17.925 8.725C17.7916 8.54167 17.725 8.33333 17.725 8.1C17.725 7.86667 17.8083 7.66667 17.975 7.5C18.2083 7.26667 18.479 7.15833 18.787 7.175C19.0956 7.19167 19.3416 7.31667 19.525 7.55C20.0083 8.18333 20.375 8.879 20.625 9.637C20.875 10.3957 21 11.1833 21 12C21 12.8167 20.875 13.6043 20.625 14.363C20.375 15.121 20.0083 15.8167 19.525 16.45C19.3416 16.6833 19.0956 16.8083 18.787 16.825C18.479 16.8417 18.2083 16.7333 17.975 16.5ZM15.45 13.975C15.3166 13.8417 15.2376 13.6667 15.213 13.45C15.1876 13.2333 15.225 13.0083 15.325 12.775C15.375 12.6417 15.4166 12.5123 15.45 12.387C15.4833 12.2623 15.5 12.1333 15.5 12C15.5 11.8667 15.4833 11.7373 15.45 11.612C15.4166 11.4873 15.375 11.3583 15.325 11.225C15.225 10.9917 15.1876 10.7667 15.213 10.55C15.2376 10.3333 15.3166 10.1583 15.45 10.025C15.7166 9.75833 16.0126 9.646 16.338 9.688C16.6626 9.72933 16.9 9.89167 17.05 10.175C17.2 10.4583 17.3126 10.75 17.388 11.05C17.4626 11.35 17.5 11.6667 17.5 12C17.5 12.3333 17.4626 12.65 17.388 12.95C17.3126 13.25 17.2 13.5417 17.05 13.825C16.9 14.1083 16.6626 14.2707 16.338 14.312C16.0126 14.354 15.7166 14.2417 15.45 13.975ZM14.975 20H4.97498V21H14.975V20ZM14.975 4V3H4.97498V4H14.975ZM4.97498 23C4.42498 23 3.95431 22.8043 3.56298 22.413C3.17098 22.021 2.97498 21.55 2.97498 21V3C2.97498 2.45 3.17098 1.979 3.56298 1.587C3.95431 1.19567 4.42498 1 4.97498 1H14.975C15.525 1 15.996 1.19567 16.388 1.587C16.7793 1.979 16.975 2.45 16.975 3V7H14.975V6H4.97498V18H14.975V17H16.975V21C16.975 21.55 16.7793 22.021 16.388 22.413C15.996 22.8043 15.525 23 14.975 23H4.97498Z" fill="#22333B"/>
</g>
</svg>
