<svg width="32" height="32" viewBox="0 0 32 32" fill="none" xmlns="http://www.w3.org/2000/svg">
<path d="M7.33325 30.6667C6.7777 30.6667 6.30547 30.4723 5.91659 30.0834C5.5277 29.6945 5.33325 29.2223 5.33325 28.6667V3.33337C5.33325 2.77782 5.5277 2.3056 5.91659 1.91671C6.30547 1.52782 6.7777 1.33337 7.33325 1.33337H21.9999C22.5555 1.33337 23.0277 1.52782 23.4166 1.91671C23.8055 2.3056 23.9999 2.77782 23.9999 3.33337V8.20004H21.9999V6.33337H7.33325V25.6667H21.9999V23.8H23.9999V28.6667C23.9999 29.2223 23.8055 29.6945 23.4166 30.0834C23.0277 30.4723 22.5555 30.6667 21.9999 30.6667H7.33325ZM7.33325 27.6667V28.6667H21.9999V27.6667H7.33325ZM19.9333 21.3334L14.2666 15.6667L15.6999 14.2667L19.9333 18.5L27.8999 10.5334L29.3333 11.9334L19.9333 21.3334ZM7.33325 4.33337H21.9999V3.33337H7.33325V4.33337ZM7.33325 4.33337V3.33337V4.33337ZM7.33325 27.6667V28.6667V27.6667Z" fill="#EAE0D5"/>
</svg>
