<svg width="24" height="24" viewBox="0 0 24 24" fill="none" xmlns="http://www.w3.org/2000/svg">
<path fill-rule="evenodd" clip-rule="evenodd" d="M21.083 21.1727C20.4362 22.0167 19.4096 22.428 18.3588 22.428H17.5714C17.5711 21.2055 16.58 20.2145 15.3574 20.2145H8.64261C7.42003 20.2145 6.4289 21.2055 6.42857 22.428H5.64123C4.59037 22.428 3.56381 22.0167 2.91704 21.1727C1.66492 19.5389 0.592271 17.4657 0.230582 15.6129C-0.23244 13.241 0.00519935 10.7825 0.91345 8.54819C1.8217 6.31392 3.35977 4.40426 5.33316 3.06069C7.30655 1.71713 9.62663 1 12 1C14.3734 1 16.6935 1.71713 18.6668 3.06069C20.6402 4.40426 22.1783 6.31392 23.0865 8.54819C23.9948 10.7825 24.2324 13.241 23.7694 15.6129C23.4077 17.4657 22.3351 19.5389 21.083 21.1727ZM6.42857 22.428C6.42857 22.4282 6.42857 22.4284 6.42857 22.4286H17.5714C17.5714 22.4284 17.5714 22.4282 17.5714 22.428H12.5H6.42857Z" fill="#22333B"/>
<circle cx="11.9999" cy="3.57148" r="1.28571" fill="#EAE0D5"/>
<circle cx="2.57148" cy="13.0001" r="1.28571" transform="rotate(-90 2.57148 13.0001)" fill="#EAE0D5"/>
<circle cx="21.4285" cy="13.0001" r="1.28571" transform="rotate(-90 21.4285 13.0001)" fill="#EAE0D5"/>
<circle cx="2.57148" cy="13.0001" r="1.28571" transform="rotate(-90 2.57148 13.0001)" fill="#EAE0D5"/>
<circle cx="21.4285" cy="13.0001" r="1.28571" transform="rotate(-90 21.4285 13.0001)" fill="#EAE0D5"/>
<circle cx="7.28574" cy="4.83462" r="1.28571" transform="rotate(-30 7.28574 4.83462)" fill="#EAE0D5"/>
<circle cx="3.83457" cy="8.28574" r="1.28571" transform="rotate(-60 3.83457 8.28574)" fill="#EAE0D5"/>
<circle cx="20.1654" cy="17.7143" r="1.28571" transform="rotate(-60 20.1654 17.7143)" fill="#EAE0D5"/>
<circle cx="3.83462" cy="17.7143" r="1.28571" transform="rotate(-120 3.83462 17.7143)" fill="#EAE0D5"/>
<circle cx="20.1654" cy="8.28567" r="1.28571" transform="rotate(-120 20.1654 8.28567)" fill="#EAE0D5"/>
<circle cx="16.7143" cy="4.83462" r="1.28571" transform="rotate(-150 16.7143 4.83462)" fill="#EAE0D5"/>
<circle cx="12" cy="13" r="2.14286" fill="#EAE0D5"/>
<rect x="12.4285" y="11.7142" width="5.14286" height="1.71429" rx="0.857143" transform="rotate(-30 12.4285 11.7142)" fill="#EAE0D5"/>
</svg>
