<svg width="24" height="24" viewBox="0 0 24 24" fill="none" xmlns="http://www.w3.org/2000/svg">
<path d="M9 3.49536H17.632C18.8708 3.49536 19.875 4.49958 19.875 5.73835C19.875 6.97712 18.8708 7.98134 17.632 7.98134H9V3.49536Z" fill="#22333B"/>
<rect x="22.1251" y="2" width="1.875" height="7.28972" rx="0.9375" fill="#22333B"/>
<rect x="2.4375" y="20.1309" width="13.125" height="1.86916" rx="0.934579" fill="#22333B"/>
<rect x="8.25" y="8.729" width="1.5" height="7.28972" rx="0.75" fill="#22333B"/>
<rect width="1.4965" height="7.30681" rx="0.748248" transform="matrix(0.501171 0.865349 -0.8667 0.49883 11.7703 10.2242)" fill="#22333B"/>
<rect width="1.4965" height="7.30681" rx="0.748248" transform="matrix(0.501171 -0.865349 0.8667 0.49883 5.4375 11.3324)" fill="#22333B"/>
<path fill-rule="evenodd" clip-rule="evenodd" d="M9 21.4393C13.9706 21.4393 18 17.4224 18 12.4673C18 11.3485 17.7946 10.2775 17.4192 9.28972H12.1764C12.994 10.102 13.5 11.2257 13.5 12.4673C13.5 14.9449 11.4853 16.9533 9 16.9533C6.51472 16.9533 4.5 14.9449 4.5 12.4673C4.5 10.0207 6.46481 8.03148 8.90729 7.98228L8.90625 7.98131H16.7959C15.2398 5.2996 12.3313 3.49536 9 3.49536C4.02944 3.49536 0 7.51225 0 12.4673C0 17.4224 4.02944 21.4393 9 21.4393Z" fill="#22333B"/>
</svg>
