<svg width="24" height="24" viewBox="0 0 24 24" fill="none" xmlns="http://www.w3.org/2000/svg">
<circle cx="11.875" cy="13.125" r="10.875" fill="#22333B"/>
<rect x="9.625" width="4.875" height="3" rx="1" fill="#22333B"/>
<rect x="18.25" y="2.82581" width="1.875" height="3.75" rx="0.9375" transform="rotate(-45 18.25 2.82581)" fill="#22333B"/>
<circle cx="11.875" cy="4.875" r="1.125" fill="#EAE0D5"/>
<circle cx="11.875" cy="21.375" r="1.125" fill="#EAE0D5"/>
<circle cx="19.0197" cy="9.00004" r="1.125" transform="rotate(60 19.0197 9.00004)" fill="#EAE0D5"/>
<circle cx="4.73031" cy="17.25" r="1.125" transform="rotate(60 4.73031 17.25)" fill="#EAE0D5"/>
<circle cx="15.9999" cy="5.98026" r="1.125" transform="rotate(30 15.9999 5.98026)" fill="#EAE0D5"/>
<circle cx="7.75004" cy="20.2697" r="1.125" transform="rotate(30 7.75004 20.2697)" fill="#EAE0D5"/>
<circle cx="4.73026" cy="8.99996" r="1.125" transform="rotate(-60 4.73026 8.99996)" fill="#EAE0D5"/>
<circle cx="19.0197" cy="17.25" r="1.125" transform="rotate(-60 19.0197 17.25)" fill="#EAE0D5"/>
<circle cx="7.74991" cy="5.98026" r="1.125" transform="rotate(-30 7.74991 5.98026)" fill="#EAE0D5"/>
<circle cx="15.9999" cy="20.2697" r="1.125" transform="rotate(-30 15.9999 20.2697)" fill="#EAE0D5"/>
<circle cx="3.625" cy="13.125" r="1.125" transform="rotate(-90 3.625 13.125)" fill="#EAE0D5"/>
<circle cx="20.125" cy="13.125" r="1.125" transform="rotate(-90 20.125 13.125)" fill="#EAE0D5"/>
<rect x="10.75" y="3.75" width="2.25" height="12.75" rx="1.125" fill="#EAE0D5"/>
<circle cx="11.875" cy="13.125" r="1.875" fill="#EAE0D5"/>
</svg>
